# xmcd
#
# Track frame offsets:
#	150
#	8912
#	21350
#	30687
#	40412
#	50805
#	63185
#	72687
#	83215
#	94365
#	104750
#	114312
#	131612
#	141637
#	152402
#	166675
#	178787
#	188312
#	198887
#	212830
#	223387
#	238037
#	248760
#	258887
#
# Disc length: 3623 seconds
#
# Revision: 1
# Processed by: cddbd v1.4b42PL1 Copyright (c) Steve Scherf et al.
# Submitted via: audiograbber 1.80
#
DISCID=610e2518
DTITLE=Chet Atkins - My Favorite Guitars - It's A Guitar World
DYEAR=1900
DGENRE=
TTITLE0=Levee Walking
TTITLE1=Wimoweh
TTITLE2=One Note Samba
TTITLE3=Moon Of Manakoora
TTITLE4=Tarvelin'
TTITLE5=Say It With Soul
TTITLE6=Josephine
TTITLE7=Rose Ann
TTITLE8=Sukiyaki
TTITLE9=It Don't Mean A Thing
TTITLE10=El Vaquero
TTITLE11=Chopin Waltz No. 10 In B Minor
TTITLE12=What'd I Say
TTITLE13=Cast Your Fate To The Wind
TTITLE14=Lara's Theme
TTITLE15=A Taste Of Honey
TTITLE16=For No One
TTITLE17=Pickin' Nashville
TTITLE18=January In Bombay
TTITLE19=Ranjana
TTITLE20=Et Maintenant
TTITLE21='Na Voce, 'Na Chitarra, E'o Poco 'E Luna
TTITLE22=Star-Time
TTITLE23=Sempre
EXTD=
EXTT0=
EXTT1=
EXTT2=
EXTT3=
EXTT4=
EXTT5=
EXTT6=
EXTT7=
EXTT8=
EXTT9=
EXTT10=
EXTT11=
EXTT12=
EXTT13=
EXTT14=
EXTT15=
EXTT16=
EXTT17=
EXTT18=
EXTT19=
EXTT20=
EXTT21=
EXTT22=
EXTT23=
PLAYORDER=
